<?xml version="1.0" standalone="no"?>
<!DOCTYPE svg PUBLIC "-//W3C//DTD SVG 1.1//EN" "http://www.w3.org/Graphics/SVG/1.1/DTD/svg11.dtd" >
<!--
2013-9-30: Created.
-->
<svg>
<metadata>
Created by iconfont
</metadata>
<defs>

<font id="iconfont" horiz-adv-x="1024" >
  <font-face
    font-family="iconfont"
    font-weight="500"
    font-stretch="normal"
    units-per-em="1024"
    ascent="896"
    descent="-128"
  />
    <missing-glyph />
    
    <glyph glyph-name="shoucang7" unicode="&#58890;" d="M512.002047-17.854391l-62.554708 61.180408c-232.28846 200.949708-384.157333 336.436472-384.157333 502.446413 0 135.416156 107.175975 240.298901 245.699911 240.298901 75.902714 0 151.86785-34.997072 201.01213-91.76703 49.072649 56.769958 125.104299 91.76703 201.007013 91.76703 138.453329 0 245.699911-104.883769 245.699911-240.298901 0-166.009941-151.935388-301.496705-384.219755-502.446413L512.002047-17.854391z"  horiz-adv-x="1024" />

    
    <glyph glyph-name="eye" unicode="&#59597;" d="M512 213.333333c-93.866667 0-170.666667 76.8-170.666667 170.666667s76.8 170.666667 170.666667 170.666667 170.666667-76.8 170.666667-170.666667S605.866667 213.333333 512 213.333333zM512 469.333333c-46.933333 0-85.333333-38.4-85.333333-85.333333s38.4-85.333333 85.333333-85.333333 85.333333 38.4 85.333333 85.333333S558.933333 469.333333 512 469.333333zM512 42.666667c-320 0-499.2 307.2-507.733333 320-8.533333 12.8-8.533333 29.866667 0 42.666667C12.8 418.133333 192 725.333333 512 725.333333s499.2-307.2 507.733333-320c8.533333-12.8 8.533333-29.866667 0-42.666667C1011.2 349.866667 832 42.666667 512 42.666667zM93.866667 384c42.666667-64 192-256 418.133333-256 226.133333 0 375.466667 192 418.133333 256-42.666667 64-192 256-418.133333 256C285.866667 640 136.533333 448 93.866667 384z"  horiz-adv-x="1027" />

    
    <glyph glyph-name="fuli" unicode="&#58904;" d="M431.841867 598.229153L57.763077 598.229153c-29.511127 0-53.44012-23.927969-53.44012-53.439096l0-133.599787c0-29.512151 23.927969-53.439096 53.44012-53.439096l374.079814 0c29.510104 0 53.441143 23.926946 53.441143 53.439096L485.284033 544.79108C485.281987 574.302207 461.351971 598.229153 431.841867 598.229153zM431.841867 304.311053L111.202173 304.311053c-29.511127 0-53.44012-23.926946-53.44012-53.43705l0-320.638671c0-29.514197 25.859971-53.442166 55.371098-53.442166l317.740668 0c29.512151 0 53.441143 23.927969 53.441143 53.442166l0.966001 320.638671C485.281987 280.38410799999997 461.351971 304.311053 431.841867 304.311053zM271.027252 891.182274c-30.5549 0.964978-88.405469-27.528983-106.383936-52.474119-64.895009-90.101087-16.726963-213.759455 187.038884-213.759455 87.361697 0 160.318312 76.088956 160.318312 106.879216C512.000512 762.645806 412.8974 886.747265 271.027252 891.182274zM436.044586 732.403015c-3.236718-19.649526-40.159652-45.716204-109.621677-45.716204-78.986959 0-139.599432 37.703717-135.059022 98.581226 2.687202 35.983539 51.977815 50.152237 79.664388 50.152237C401.598053 835.421296 437.191712 739.344101 436.044586 732.403015zM966.237947 598.229153L592.162226 598.229153c-29.512151 0-53.442166-23.927969-53.442166-53.439096l0-133.599787c0-29.512151 23.930015-53.439096 53.442166-53.439096l374.076744 0c29.512151 0 53.44012 23.926946 53.44012 53.439096L1019.67909 544.79108C1019.67602 574.302207 995.750097 598.229153 966.237947 598.229153zM667.856186 624.9497240000001c198.103894 0 244.939595 123.657344 181.844581 213.759455C832.24521 863.654314 775.988951 892.148275 746.26907 891.182274c-137.904837-4.436032-234.268558-128.537492-234.268558-159.353334C512.000512 701.03868 582.923818 624.9497240000001 667.856186 624.9497240000001zM746.26907 835.421296c26.929326 0 74.835406-14.168698 77.471442-50.152237 4.411473-60.877509-54.537104-98.581226-131.303488-98.581226-67.556629 0-103.435791 26.066679-106.593713 45.716204C584.748373 739.344101 619.349425 835.421296 746.26907 835.421296zM912.796804 304.311053L592.162226 304.311053c-29.512151 0-53.442166-23.926946-53.442166-53.43705l0-320.638671c0-29.514197 24.894993-53.442166 54.405097-53.442166L910.865825-123.20683399999996c29.514197 0 53.442166 23.927969 53.442166 53.442166l1.930979 320.638671C966.237947 280.38410799999997 942.309978 304.311053 912.796804 304.311053z"  horiz-adv-x="1024" />

    
    <glyph glyph-name="huiyuanquanyi" unicode="&#59193;" d="M148.72381 176.761905l-97.52381-156.038095c-4.87619-9.752381 0-21.942857 12.190476-21.942858l131.657143-7.314285c4.87619 0 7.314286-2.438095 9.752381-4.876191l80.457143-107.27619c7.314286-7.314286 19.504762-7.314286 24.380952 0l92.647619 153.6c4.87619 7.314286 2.438095 14.628571-4.87619 19.504762l-229.180953 129.219047c-7.314286 2.438095-14.628571 0-19.504761-4.87619zM875.27619 179.2l97.52381-156.038095c4.87619-9.752381 0-21.942857-12.190476-21.942857L828.952381-6.095238c-4.87619 0-7.314286-2.438095-9.752381-4.876191l-80.457143-107.27619c-7.314286-7.314286-19.504762-7.314286-24.380952 0l-92.647619 153.6c-4.87619 7.314286-2.438095 14.628571 4.87619 19.504762l229.180953 129.219047c7.314286 4.87619 14.628571 2.438095 19.504761-4.87619zM855.771429 710.704762L546.133333 886.247619c-21.942857 12.190476-51.2 12.190476-73.142857 0L165.790476 713.142857C143.847619 700.952381 129.219048 676.571429 129.219048 652.190476v-348.647619c0-24.380952 14.628571-48.761905 36.571428-60.952381L475.428571 67.047619c21.942857-12.190476 51.2-12.190476 73.142858 0l307.2 170.666667c21.942857 12.190476 36.571429 36.571429 36.571428 60.952381V647.314286c0 26.819048-14.628571 51.2-36.571428 63.390476z m-146.285715-148.72381l-180.419047-260.87619c-4.87619-7.314286-14.628571-12.190476-24.380953-12.190476s-19.504762 4.87619-24.380952 12.190476l-173.104762 260.87619c-9.752381 12.190476-4.87619 31.695238 7.314286 39.009524 12.190476 7.314286 31.695238 4.87619 39.009524-7.314286l148.723809-224.304761 156.038095 226.742857c9.752381 12.190476 26.819048 17.066667 39.009524 7.314285 19.504762-12.190476 21.942857-29.257143 12.190476-41.447619z"  horiz-adv-x="1024" />

    
    <glyph glyph-name="shoucang" unicode="&#58899;" d="M715.757 42.242c-14.978 0.001-34.261 4.837-57.312 14.372C608.258 77.374 557.238 87.9 506.8 87.9c-50.437 0-101.457-10.526-151.642-31.286-23.055-9.536-42.337-14.372-57.312-14.372-15.505 0-22.095 5.183-25.703 9.081-11.017 11.902-15.527 38.546-12.702 75.022 8.418 108.7-23.106 205.894-93.698 288.88-26.326 30.948-37.931 56.889-32.677 73.045 5.246 16.133 29.835 30.263 69.239 39.786 105.822 25.574 188.367 85.652 245.34 178.565 21.226 34.614 42.234 53.677 59.154 53.677s37.928-19.063 59.156-53.678c56.973-92.912 139.518-152.99 245.34-178.564 39.4-9.523 63.989-23.652 69.235-39.785 5.254-16.156-6.351-42.098-32.676-73.045-70.589-82.984-102.114-180.177-93.699-288.879 2.827-36.483-1.682-63.128-12.695-75.027-3.607-3.896-10.195-9.077-25.698-9.077l-0.005-0.001zM506.8 735.292c0.852-0.19 14.704-4.007 37.843-41.74C605.2 594.797 692.939 530.94 805.422 503.756c44.418-10.736 51.292-23.116 51.329-23.197 0.031-0.127 1.765-14.218-27.937-49.136-75.021-88.195-108.526-191.487-99.582-307.01 3.458-44.635-5.711-55.66-6.179-56.172-0.519-0.281-2.811-0.999-7.297-0.999-8.029 0-22.832 2.164-47.755 12.474-53.232 22.019-107.467 33.184-161.2 33.184-53.733 0-107.968-11.165-161.198-33.184-24.924-10.31-39.727-12.474-47.756-12.474-4.486 0-6.776 0.719-7.292 0.999-0.464 0.506-9.646 11.518-6.187 56.174 8.947 115.519-24.557 218.812-99.581 307.009-29.702 34.916-27.97 49.008-27.952 49.095 0.049 0.12 6.925 12.501 51.344 23.236 112.485 27.185 200.224 91.042 260.78 189.796 23.138 37.734 36.989 41.551 37.841 41.741m0 50.007c-26.822 0-53.644-21.87-80.466-65.609-53.641-87.477-130.277-143.256-229.901-167.333-99.626-24.078-116.203-75.188-49.732-153.329 66.471-78.143 95.743-168.394 87.815-270.752-5.733-74.019 15.382-111.033 63.33-111.033 18.357 0 40.643 5.422 66.868 16.27 47.362 19.591 94.724 29.387 142.087 29.387 47.363 0 94.725-9.796 142.088-29.387 26.219-10.846 48.513-16.27 66.867-16.27 47.957 0 69.062 37.008 63.326 111.033-7.924 102.358 21.345 192.608 87.817 270.752 66.468 78.142 49.892 129.251-49.73 153.329-99.626 24.077-176.26 79.855-229.901 167.333-26.823 43.739-53.646 65.609-80.468 65.609zM468.151 533.939c-25.768-41.906-62.575-68.628-110.423-80.164-47.853-11.533-55.814-36.019-23.886-73.453 31.923-37.435 45.984-80.672 42.177-129.707-3.81-49.037 17.034-64.169 62.535-45.398 45.496 18.772 90.996 18.772 136.492 0 45.497-18.771 66.342-3.639 62.535 45.398-3.807 49.035 10.251 92.272 42.177 129.707 31.927 37.434 23.966 61.92-23.885 73.453-47.85 11.536-84.659 38.258-110.424 80.164-25.77 41.91-51.533 41.91-77.298 0z"  horiz-adv-x="1024" />

    
    <glyph glyph-name="dianzan" unicode="&#58902;" d="M513.081 21.368000000000052c-5.491 0-9.992 1.542-14.165 4.852-0.947 0.751-2.349 1.793-5.713 4.288-17.462 12.952-70.601 52.367-130.101 104.985-74.861 66.203-129.229 126.093-161.594 178.007l-0.263 0.418c-29.49 46.888-62.914 100.03-62.914 176.816 0 127.183 92.452 230.653 206.091 230.653 55.104 0 101.472-24.618 141.755-75.261a303.5 303.5 0 0 0 5.58-7.24c5.117-6.848 13.273-10.936 21.819-10.936 8.602 0 16.789 4.132 21.902 11.053a292.022 292.022 0 0 0 5.068 6.657c19.337 24.647 40.85 43.522 63.938 56.099 23.912 13.024 50.243 19.628 78.262 19.628 54.193 0 105.442-23.731 144.308-66.822 39.516-43.813 61.277-101.996 61.276-163.83 0-76.782-33.419-129.924-62.903-176.81l-0.215-0.342c-32.594-51.779-87.178-111.677-162.229-178.02-59.623-52.703-112.695-92.163-130.135-105.13-2.795-2.079-4.209-3.131-5.138-3.85-4.782-3.461-9.702-5.215-14.629-5.215zM682.748 696.386c47.023 0 91.68-20.799 125.743-58.566 17.077-18.934 30.522-41.032 39.963-65.683 9.873-25.778 14.878-53.165 14.878-81.404 0-69.573-31.38-119.472-59.065-163.498l-0.205-0.326c-30.891-49.074-85.401-108.765-157.639-172.619-58.831-52.003-111.263-90.986-128.492-103.797-2.304-1.713-3.758-2.794-4.85-3.625-1.119 0.851-2.609 1.956-4.981 3.716-17.247 12.793-69.733 51.723-128.43 103.63-72.025 63.694-126.297 123.348-156.947 172.511l-0.052 0.084-0.053 0.084-0.209 0.332c-27.691 44.027-59.077 93.929-59.077 163.507 0 28.364 5.009 55.825 14.889 81.621 9.438 24.644 22.887 46.717 39.972 65.604 34.082 37.678 78.912 58.428 126.23 58.428 23.973 0 45.516-5.376 65.858-16.436 19.931-10.837 38.884-27.453 56.332-49.388a277.497 277.497 0 0 0 5.111-6.631c9.812-13.138 25.457-20.981 41.851-20.981 16.492 0 32.193 7.918 42.006 21.19a269.498 269.498 0 0 0 4.633 6.086c34.929 44.52 75.01 66.161 122.534 66.161m0 50c-66.55 0-120.081-32.031-161.871-85.297a316.842 316.842 0 0 1-5.505-7.23 2.221 2.221 0 0 0-1.797-0.909c-0.671 0-1.342 0.3-1.79 0.9a328.411 328.411 0 0 1-6.042 7.839c-42.084 52.907-95.021 84.698-161.32 84.698-127.374 0-231.091-114.479-231.091-255.653 0-84.192 37.255-143.227 66.962-190.459 86.09-138.092 294.023-286.455 303.085-293.64 9.06-7.188 19.13-10.267 29.702-10.267 10.575 0 20.642 3.592 29.703 10.267 9.063 7.185 216.991 156.061 303.593 293.64 29.702 47.232 66.955 106.267 66.955 190.459 0.004 140.66-103.707 255.652-230.584 255.652zM598.06 611.068c-34.094 0-61.357-17.174-82.473-45.585l-0.021-0.029a2.633 2.633 0 0 0-4.225-0.012l-0.195 0.259c-21.303 28.28-48.281 45.366-82.293 45.366-63.704 0-115.574-58.48-115.574-130.596 0-43.007 18.63-73.162 33.49-97.29 43.055-70.54 147.049-146.327 151.581-150.001 4.532-3.67 9.568-5.245 14.857-5.245 5.287 0 10.325 1.837 14.857 5.245 4.532 3.673 108.525 79.724 151.834 150.001 14.857 24.128 33.49 54.284 33.49 97.29-0.001 71.854-51.87 130.597-115.328 130.597z"  horiz-adv-x="1024" />

    
    <glyph glyph-name="tubiaozhizuomobandefuben-" unicode="&#58898;" d="M686 296.8m-242 0a242 242 0 1 1 484 0 242 242 0 1 1-484 0ZM512-60.7c-18.1 0-36.2 6.9-50 20.7L153.3 268.6c-51.9 51.9-80.5 121-80.5 194.4s28.6 142.5 80.5 194.4c42.1 42.1 98.2 65.4 157.8 65.4 59.6 0 115.6-23.2 157.8-65.4l43.1-43.1 43.1 43.1c42.1 42.1 98.2 65.3 157.8 65.3 59.6 0 115.6-23.2 157.8-65.3 51.9-51.9 80.5-121 80.5-194.4s-28.6-142.5-80.5-194.4L562-40c-13.8-13.8-31.9-20.7-50-20.7zM311.1 632.7c-35.6 0-69-13.8-94.1-39-34.9-34.9-54.2-81.4-54.2-130.8S182 367.1 217 332.1l295-295 295 295c72.1 72.1 72.1 189.4 0 261.5-51.9 51.9-136.4 51.9-188.3 0l-74.9-74.9c-17.6-17.6-46.1-17.6-63.6 0l-74.9 74.9c-25.2 25.3-58.6 39.1-94.2 39.1z"  horiz-adv-x="1024" />

    
    <glyph glyph-name="shoucang1" unicode="&#58970;" d="M427.6 745.8c-58.3-95-141.5-155.6-249.7-181.8s-126.2-81.7-54-166.6 104-182.9 95.4-294.1 38.5-145.5 141.4-102.9 205.8 42.6 308.7 0 150-8.3 141.4 102.9 23.2 209.2 95.4 294.1 54.2 140.4-54 166.6-191.5 86.8-249.8 181.8c-58.2 95.1-116.5 95.1-174.8 0zM866.6 560.3c23.8-49.3 38-104.2 40.2-162.1 68.2 80.6 54.8 134.6-40.2 162.1zM92.6 442.6c5.2 35.2 14.8 69 28.4 100.7-41.7-23.1-51.1-56.7-28.4-100.7zM355.7-1.5c-51.5 19-98.1 48.1-137.4 84.8-1.4-93.4 44.4-121.7 137.4-84.8zM573.7 785c-37.4 40.9-74.7 42.8-112.1 5.5 11.9 1 23.9 1.6 36 1.6 26-0.1 51.5-2.5 76.1-7.1zM657 5.4c4.1-1.6 8.3-3.2 12.4-4.9 102.9-42.6 150-8.3 141.4 102.9-0.4 4.9-0.7 9.7-0.9 14.5-41.2-48.5-93.5-87.4-152.9-112.5zM613.1 729.3c-3.6 5.4-7.2 10.9-10.6 16.5-9.6 15.6-19.1 28.6-28.7 39.1-24.7 4.6-50.1 7.1-76.1 7.1-12.1 0-24.1-0.5-36-1.6-10.1-10-20.1-22.9-30.2-38.6 15.9 2.2 32.2 3.3 48.8 3.3 46.9 0.1 91.7-9.1 132.8-25.8zM164.4 560.5c-17.1-4.9-31.6-10.6-43.5-17.2-13.5-31.7-23.2-65.5-28.4-100.7 7.2-14 17.6-29 31.3-45.1 1-1.2 2.1-2.4 3.1-3.7-0.1 2.7-0.1 5.3-0.1 8 0.1 57.1 13.6 111 37.6 158.7zM906.2 397.5c0.2 0.2 0.3 0.4 0.5 0.6-2.2 57.9-16.4 112.8-40.2 162.1-4.6 1.3-9.4 2.6-14.4 3.8-25.3 6.1-49.1 14.1-71.7 24 33.6-54.1 53-117.8 53-186.2 0-195.1-158.2-353.3-353.3-353.3-103 0-195.7 44.1-260.2 114.3 1.1-19.4 0.9-39.2-0.7-59.5-0.5-7-0.9-13.7-1-20.1 39.4-36.7 86-65.8 137.4-84.8 1.6 0.7 3.3 1.3 5 2 98.8 40.9 197.5 42.5 296.3 4.9 59.5 25.2 111.8 64 152.9 112.5-4.7 105.3 27.3 198.5 96.4 279.7zM480.2 48.6c195.1 0 353.3 158.2 353.3 353.3 0 68.3-19.4 132.1-53 186.2-68.3 29.9-124.1 77-167.4 141.3-41 16.7-85.9 25.9-132.9 25.9-16.5 0-32.8-1.1-48.8-3.3-1.3-2-2.5-3.9-3.8-6-7.1-11.5-14.5-22.6-22.3-33.1 18.6 3.6 37.8 5.6 57.5 5.6 164.1 0 297.2-133.1 297.2-297.2S626.9 123.9 462.7 123.9 165.5 257 165.5 421.1c0 55.1 15 106.7 41.1 150.9-9.4-2.9-19-5.6-28.8-8-4.7-1.1-9.2-2.3-13.5-3.6-24-47.7-37.5-101.6-37.5-158.7 0-2.7 0-5.3 0.1-8 57.1-68.5 88.1-145.5 93-230.9 64.6-70.2 157.3-114.2 260.3-114.2zM462.7 123.9C626.9 123.9 760 257 760 421.1S626.9 718.3 462.7 718.3c-19.7 0-38.9-1.9-57.5-5.6-11.8-15.9-24.4-30.6-37.9-44.2 24.4 8.3 50.6 12.9 77.9 12.9 133.2 0 241.1-107.9 241.1-241.1s-107.8-241.1-241-241.1-241.1 108-241.1 241.2c0 57.3 20 109.9 53.4 151.3-16.2-7.5-33.2-14.1-50.9-19.6-26.1-44.2-41.1-95.8-41.1-150.9-0.1-164.2 133-297.3 297.1-297.3zM445.3 199.2c133.2 0 241.1 107.9 241.1 241.1S578.5 681.5 445.3 681.5c-27.3 0-53.5-4.5-77.9-12.9-31.9-32.1-68.5-57.8-109.8-76.9-33.4-41.4-53.4-94-53.4-151.3 0-133.2 108-241.2 241.1-241.2z m-17.4 445.4c102.2 0 185-82.8 185-185s-82.8-185-185-185-185 82.8-185 185 82.8 185 185 185zM427.9 274.6c102.2 0 185 82.8 185 185s-82.8 185-185 185-185-82.8-185-185 82.8-185 185-185z m-17.4 333.2c71.2 0 128.9-57.7 128.9-128.9S481.7 350 410.5 350s-128.9 57.7-128.9 128.9 57.7 128.9 128.9 128.9zM410.5 478.8m-128.9 0a128.9 128.9 0 1 1 257.8 0 128.9 128.9 0 1 1-257.8 0ZM515 799.1c10.4 0 21-4.5 32.3-13.8 12.9-10.5 26.3-27 39.7-48.9 60.6-98.8 148.3-162.7 260.8-189.9 24.9-6 44.7-13.7 58.7-22.7 12.3-8 19.9-16.7 23.1-26.6 3.2-9.9 2.2-21.4-3.1-35.1-6-15.6-17.5-33.4-34.2-53-75.1-88.2-108.6-191.6-99.6-307.2 3.3-42.8-2.3-73.4-16.2-88.4-8-8.6-19.3-12.8-34.6-12.8-17.5 0-39.6 5.5-65.8 16.3-53.4 22.1-107.6 33.3-161.2 33.3S407.1 39.1 353.7 17c-26.2-10.8-48.3-16.3-65.8-16.3-15.3 0-26.7 4.2-34.6 12.8-13.9 15-19.5 45.6-16.2 88.4 9 115.6-24.6 218.9-99.6 307.2-16.7 19.6-28.2 37.4-34.2 53-5.3 13.7-6.3 25.2-3.1 35.1 3.2 9.9 10.8 18.6 23.1 26.6 14 9.1 33.7 16.7 58.7 22.7 112.5 27.2 200.3 91.1 260.8 189.9 13.4 21.9 26.8 38.4 39.7 48.9 11.6 9.3 22.1 13.8 32.5 13.8m0 18c-29.1 0-58.3-23.8-87.4-71.3-58.3-95-141.5-155.6-249.7-181.8-108.2-26.2-126.2-81.7-54-166.6s104-182.9 95.4-294.1C213 23 236-17.2 288.1-17.2c19.9 0 44.1 5.9 72.6 17.7 51.4 21.3 102.9 31.9 154.3 31.9s102.9-10.6 154.3-31.9c28.5-11.8 52.7-17.7 72.6-17.7 52.1 0 75 40.2 68.8 120.6-8.6 111.2 23.2 209.2 95.4 294.1s54.2 140.4-54 166.6C744 590.2 660.7 650.8 602.4 745.8c-29.1 47.5-58.2 71.3-87.4 71.3zM473.1 547c-28-45.5-68-74.5-119.9-87.1-52-12.5-60.6-39.1-25.9-79.8s50-87.6 45.8-140.9c-4.1-53.3 18.5-69.7 67.9-49.3s98.8 20.4 148.3 0c49.4-20.4 72.1-4 67.9 49.3-4.1 53.3 11.1 100.2 45.8 140.9s26 67.3-25.9 79.8c-52 12.5-92 41.6-119.9 87.1-28.2 45.5-56.2 45.5-84.1 0zM316.2 527.3c-6.4 0-12.6 3.4-15.9 9.5-4.7 8.8-1.4 19.7 7.4 24.4 60.8 32.6 98.4 72.4 98.8 72.8 6.8 7.3 18.2 7.6 25.4 0.9 7.3-6.8 7.6-18.2 0.9-25.4-1.7-1.8-42.1-44.6-108.1-79.9-2.7-1.6-5.6-2.3-8.5-2.3zM250.7 499.1c-7.3 0-14.2 4.5-16.9 11.7-3.5 9.3 1.3 19.7 10.6 23.1l10.5 3.9c9.3 3.5 19.7-1.3 23.1-10.6s-1.3-19.7-10.6-23.1l-10.5-3.9c-2-0.7-4.1-1.1-6.2-1.1z"  horiz-adv-x="1024" />

    
    <glyph glyph-name="dianzan1" unicode="&#58998;" d="M483.1 160.4c-3.5 0-7.1 1.1-10.1 3.4-11.7 8.7-44 34.1-82.8 68.5-15.9 14.1-155.4 140.5-155.4 252.3 0 80.1 36.1 114.3 57.6 127.6 28.3 17.4 63.1 18.9 92.9 3.8 8.4-4.2 11.8-14.4 7.5-22.8-4.2-8.4-14.4-11.8-22.8-7.5-19.3 9.7-41.6 8.8-59.8-2.4-26.7-16.4-41.4-51.5-41.4-98.6 0-34.7 18.5-78.6 53.5-127.1 36.7-50.8 78.4-89.1 90.4-99.7 39.4-34.9 71.5-59.9 80.6-66.6 7.5-5.6 9.1-16.2 3.5-23.8-3.4-4.7-8.5-7.1-13.7-7.1zM682.7 696.4c47 0 91.7-20.8 125.7-58.6 17.1-18.9 30.5-41 40-65.7 9.9-25.8 14.9-53.2 14.9-81.4 0-69.6-31.4-119.5-59.1-163.5l-0.2-0.3c-30.9-49.1-85.4-108.8-157.6-172.6-58.8-52-111.3-91-128.5-103.8-2.3-1.7-3.8-2.8-4.8-3.6-1.1 0.9-2.6 2-5 3.7-17.2 12.8-69.7 51.7-128.4 103.6-72 63.7-126.3 123.3-156.9 172.5l-0.1 0.1-0.1 0.1-0.2 0.3c-27.7 44-59.1 93.9-59.1 163.5 0 28.4 5 55.8 14.9 81.6 9.4 24.6 22.9 46.7 40 65.6 34.1 37.7 78.9 58.4 126.2 58.4 24 0 45.5-5.4 65.9-16.4 19.9-10.8 38.9-27.5 56.3-49.4 1.7-2.1 3.4-4.4 5.1-6.6 9.8-13.1 25.5-21 41.9-21 16.5 0 32.2 7.9 42 21.2 1.5 2.1 3.1 4.1 4.6 6.1 34.9 44.5 75 66.2 122.5 66.2m0 50c-66.5 0-120.1-32-161.9-85.3-1.9-2.4-3.7-4.8-5.5-7.2-0.4-0.6-1.1-0.9-1.8-0.9s-1.3 0.3-1.8 0.9c-2 2.7-4 5.3-6 7.8-42.1 52.9-95 84.7-161.3 84.7-127.4 0-231.1-114.5-231.1-255.7 0-84.2 37.3-143.2 67-190.5 86.1-138.1 294-286.5 303.1-293.6 9.1-7.2 19.1-10.3 29.7-10.3 10.6 0 20.6 3.6 29.7 10.3 9.1 7.2 217 156.1 303.6 293.6 29.7 47.2 67 106.3 67 190.5-0.1 140.7-103.8 255.7-230.7 255.7z"  horiz-adv-x="1024" />

    
    <glyph glyph-name="lianjie" unicode="&#58984;" d="M62.296463 319.76529l64.234709 64.23471 85.676565-85.646279-42.853425-42.853425a121.140424 121.140424 0 0 1 0-171.292559l42.853425-42.853425a121.140424 121.140424 0 0 1 171.292559 0l214.145983 214.145984a121.140424 121.140424 0 0 1 0 171.322844l-42.823139 42.823139a120.080445 120.080445 0 0 1-24.440081 18.413345l88.705075 88.67479 85.64628-85.64628a211.995741 211.995741 0 0 0 0-299.822548l-256.969124-256.969123a211.995741 211.995741 0 0 0-299.822548 0l-85.646279 85.646279a211.995741 211.995741 0 0 0 0 299.822548zM961.703537 448.23471l-64.234709-64.23471-85.676565 85.646279 42.853425 42.853425a121.140424 121.140424 0 0 1 0 171.292559l-42.853425 42.853425a121.140424 121.140424 0 0 1-171.292559 0l-214.145983-214.145984a121.140424 121.140424 0 0 1 0-171.322844l42.823139-42.823139a120.080445 120.080445 0 0 1 24.440081-18.413345L404.911866 191.265586l-85.64628 85.64628a211.995741 211.995741 0 0 0 0 299.822548l256.969124 256.969123a211.995741 211.995741 0 0 0 299.822548 0l85.646279-85.646279a211.995741 211.995741 0 0 0 0-299.822548z"  horiz-adv-x="1024" />

    
    <glyph glyph-name="lishijilu" unicode="&#58960;" d="M515.396 797c229.198 0 415-185.802 415-415 0-104.959-39.436-208.142-120.273-292.344L516.856 391.222 515.396 797zM515.396 737c47.951 0 94.436-9.378 138.164-27.873 42.266-17.877 80.237-43.482 112.859-76.104s58.227-70.593 76.104-112.859c18.495-43.728 27.873-90.212 27.873-138.164s-9.378-94.436-27.873-138.164c-17.877-42.266-43.482-80.237-76.104-112.859s-70.593-58.227-112.859-76.104C609.832 36.37800000000004 563.347 27 515.396 27s-94.436 9.378-138.164 27.873c-42.266 17.877-80.237 43.482-112.859 76.104s-58.227 70.593-76.104 112.859c-18.495 43.728-27.873 90.213-27.873 138.164s9.378 94.436 27.873 138.164c17.877 42.266 43.482 80.237 76.104 112.859s70.593 58.227 112.859 76.104C420.96 727.6220000000001 467.445 737 515.396 737m0 60c-229.198 0-415-185.802-415-415s185.802-415 415-415 415 185.802 415 415-185.802 415-415 415zM515.396 691.867c-15.217 0-27.667-12.45-27.667-27.667v-277.589c0-15.217 12.45-27.667 27.667-27.667s27.667 12.45 27.667 27.667V664.2c0 15.217-12.45 27.667-27.667 27.667zM515.669 413.587c-7.092 0-14.183-2.69-19.563-8.07-10.76-10.76-10.76-28.367 0-39.126l141.398-141.398c5.38-5.38 12.471-8.07 19.563-8.07 7.092 0 14.183 2.69 19.563 8.07 10.76 10.76 10.76 28.367 0 39.126L535.233 405.517c-5.38 5.38-12.472 8.07-19.564 8.07z"  horiz-adv-x="1024" />

    
    <glyph glyph-name="shoucang2" unicode="&#59009;" d="M512 384m-512 0a512 512 0 1 1 1024 0 512 512 0 1 1-1024 0ZM663.04 213.76c2.56-15.36-2.56-29.44-15.36-38.4-12.8-8.96-28.16-10.24-42.24-2.56L524.8 216.32c-11.52 6.4-25.6 6.4-38.4 0l-80.64-43.52c-12.8-7.68-29.44-6.4-42.24 2.56s-19.2 24.32-15.36 38.4l16.64 88.32c2.56 12.8-1.28 26.88-11.52 35.84l-66.56 61.44c-11.52 10.24-15.36 25.6-10.24 39.68 5.12 14.08 17.92 24.32 32 26.88l90.88 11.52c12.8 1.28 25.6 10.24 30.72 21.76l38.4 81.92c8.96 19.2 33.28 28.16 52.48 17.92 7.68-3.84 14.08-10.24 17.92-17.92l38.4-81.92c5.12-12.8 17.92-20.48 30.72-21.76l90.88-11.52c15.36-1.28 28.16-11.52 32-26.88 5.12-14.08 1.28-30.72-10.24-39.68l-66.56-61.44c-10.24-8.96-14.08-23.04-11.52-35.84l20.48-88.32z"  horiz-adv-x="1024" />

    
    <glyph glyph-name="gouwuche" unicode="&#59018;" d="M342.817391 554.666667m-341.333333 0a341.333333 341.333333 0 1 1 682.666667 0 341.333333 341.333333 0 1 1-682.666667 0ZM1078.910145 631.837681v-2.968116l-89.043478-445.217391c-10.388406-57.878261-53.426087-118.724638-124.66087-118.724638H391.791304c-72.718841 0-115.756522 60.846377-124.660869 120.208696 0 0-89.043478 583.234783-89.043478 584.71884C178.086957 798.052174 154.342029 821.797101 126.144928 821.797101h-89.043479C16.324638 821.797101 0 838.121739 0 858.898551S16.324638 896 37.101449 896h89.043479c68.266667 0 123.176812-54.910145 126.144927-121.692754l89.043478-577.29855c1.484058-5.936232 10.388406-57.878261 51.942029-57.878261h473.414493c31.165217 0 48.973913 34.133333 51.942029 57.878261V198.492754l89.043478 443.733333c1.484058 10.388406-1.484058 20.776812-7.42029 29.681159-11.872464 11.872464-28.197101 17.808696-44.521739 16.324638H482.318841c-20.776812 0-37.101449 16.324638-37.10145 37.101449S463.026087 762.434783 482.318841 762.434783h470.446376c37.101449 1.484058 74.202899-13.356522 99.431884-41.553624 22.26087-25.228986 32.649275-57.878261 26.713044-89.043478zM491.223188-9.275361999999973c32.649275 0 59.362319-26.713043 59.362319-59.362319s-26.713043-59.362319-59.362319-59.362319-59.362319 26.713043-59.362318 59.362319 26.713043 59.362319 59.362318 59.362319z m296.811595 0c32.649275 0 59.362319-26.713043 59.362318-59.362319s-26.713043-59.362319-59.362318-59.362319-59.362319 26.713043-59.362319 59.362319 26.713043 59.362319 59.362319 59.362319z"  horiz-adv-x="1080" />

    
    <glyph glyph-name="huiyuanjifen" unicode="&#59056;" d="M479.214202-15.847619L15.976107 432.761905c-17.066667 17.066667-21.942857 46.32381-7.314286 65.828571L196.395154 776.533333c9.752381 14.628571 26.819048 21.942857 41.447619 21.942857h548.571429c17.066667 0 31.695238-7.314286 41.447619-21.942857l187.733333-275.504762c14.628571-21.942857 12.190476-48.761905-7.314285-65.828571L547.480869-15.847619c-19.504762-19.504762-48.761905-19.504762-68.266667 0zM479.214202 154.819048c2.438095-2.438095 7.314286-7.314286 12.190476-9.752381-4.87619 2.438095-9.752381 4.87619-12.190476 9.752381M513.347535 223.085714l-153.6 151.161905c-7.314286 7.314286-17.066667 9.752381-24.380952 9.752381-31.695238 0-48.761905-39.009524-24.380953-63.390476l170.666667-165.790476c2.438095-2.438095 7.314286-7.314286 12.190476-9.752381s9.752381-4.87619 12.190477-4.876191h9.75238c12.190476 0 24.380952 4.87619 34.133334 14.628572l170.666666 165.790476c24.380952 21.942857 7.314286 63.390476-24.380952 63.390476-9.752381 0-19.504762-4.87619-24.380952-9.752381L513.347535 223.085714z"  horiz-adv-x="1025" />

    
    <glyph glyph-name="gouwu" unicode="&#58891;" d="M659.4 58.89999999999998l-317.1 2.2c-10.6 0.1-19.2 8.8-19.1 19.4l2.8 396.6c0.1 10.6 8.8 19.2 19.4 19.1l336.4-2.4c10.6-0.1 19.2-8.8 19.1-19.4l-2.6-377.3c-0.2-21.2-17.6-38.3-38.9-38.2zM758.8 37.200000000000045h-0.4L261 40.700000000000045c-31.9 0.2-57.7 26.3-57.4 58.2l3.9 550c0.1 15.5 6.2 29.9 17.2 40.8 11 10.8 26 17 41 16.7l497.4-3.5c15.4-0.1 29.9-6.2 40.8-17.2 10.9-11 16.8-25.6 16.7-41l-3.9-550c-0.1-15.5-6.2-29.9-17.2-40.8-11-10.8-25.4-16.7-40.7-16.7zM265.2 667.7c-10.6 0-19.2-8.6-19.3-19.1l-3.9-550c0-5.1 1.9-10 5.6-13.7s8.5-5.7 13.6-5.7l497.4-3.5c10.1 0 19.4 8.5 19.4 19.1l3.9 550c0 5.1-1.9 10-5.6 13.7-3.6 3.7-8.4 5.7-13.6 5.7l-497.4 3.5h-0.1zM552.1 373.5h-0.7l-78.8 0.6c-25.8 0.2-49.9 10.4-68 28.7-18.1 18.3-27.9 42.6-27.8 68.4l0.8 110.8c0.1 10.6 8.7 19.1 19.3 19.1h0.1c10.7-0.1 19.2-8.8 19.1-19.4l-0.8-110.8c-0.1-15.4 5.8-30 16.6-41 10.9-11 25.3-17.1 40.8-17.2l78.8-0.6h0.4c31.7 0 57.6 25.7 57.8 57.4l0.8 110.8c0.1 10.6 8.1 19.7 19.4 19.1 10.7-0.1 19.2-8.8 19.1-19.4l-0.8-110.8c-0.1-52.9-43.3-95.7-96.1-95.7z"  horiz-adv-x="1024" />

    
    <glyph glyph-name="shoucang3" unicode="&#58949;" d="M512 891.904C231.424 891.904 4.096 664.576 4.096 384s227.328-508.416 508.416-508.416 508.416 227.328 508.416 508.416S792.576 891.904 512 891.904z m0-941.568c-239.616 0-433.664 194.048-433.664 433.664S272.384 817.664 512 817.664s433.664-194.048 433.664-433.664-194.048-433.664-433.664-433.664zM596.992 547.328c-35.328 0-66.048-17.408-84.992-44.032-18.944 25.6-49.664 42.496-83.968 42.496-57.856 0-104.448-46.592-104.448-104.448 0-28.16 11.264-53.248 29.184-72.192l1.536-1.536L511.488 209.92l159.232 159.232c18.944 18.944 30.72 45.056 30.72 73.728 0 57.856-46.592 104.448-104.448 104.448z"  horiz-adv-x="1024" />

    
    <glyph glyph-name="category_fill" unicode="&#58953;" d="M291 798.3c-51.6 0-100.3-20.2-137-57-36.7-36.7-57-85.4-57-137s20.2-100.3 57-137c36.7-36.7 85.4-57 137-57s100.3 20.2 137 57c36.7 36.7 57 85.4 57 137s-20.2 100.3-57 137c-36.7 36.7-85.3 57-137 57zM291 356.29999999999995c-51.6 0-100.3-20.2-137-57s-57-85.4-57-137 20.2-100.3 57-137c36.7-36.7 85.4-57 137-57s100.3 20.2 137 57c36.7 36.7 57 85.4 57 137 0 51.6-20.2 100.3-57 137s-85.3 57-137 57zM803 356.29999999999995H663c-68.4 0-124-55.6-124-124v-140c0-68.4 55.6-124 124-124h140c68.4 0 124 55.6 124 124v140c0 68.4-55.6 124-124 124zM733 410.3c51.6 0 100.3 20.2 137 57s57 85.4 57 137-20.2 100.3-57 137-85.4 57-137 57-100.3-20.2-137-57c-36.7-36.7-57-85.4-57-137s20.2-100.3 57-137c36.7-36.8 85.4-57 137-57z"  horiz-adv-x="1024" />

    
    <glyph glyph-name="shoucang5" unicode="&#58982;" d="M851.349 512.488c43.677-6.347 61.117-60.021 29.512-90.828l-126.42-123.229a53.253 53.253 0 0 1-15.315-47.133l29.844-174.002c7.461-43.5-38.197-76.673-77.263-56.135l-156.263 82.152a53.248 53.248 0 0 1-49.559 0l-156.263-82.152c-39.066-20.538-84.724 12.635-77.263 56.135l29.844 174.002 569.146 261.19zM716.565-15.044c-13.231-0.001-26.527 3.19-38.817 9.652L521.484 76.76a23.243 23.243 0 0 1-21.638 0l-156.264-82.152c-28.255-14.854-61.848-12.426-87.673 6.336-25.824 18.763-38.515 49.963-33.119 81.424l29.843 174.002a23.247 23.247 0 0 1-6.686 20.579l-126.42 123.229c-22.858 22.281-30.93 54.98-21.066 85.339s35.615 52.069 67.204 56.659l174.708 25.387a23.248 23.248 0 0 1 17.506 12.719l78.131 158.312C450.138 767.217 478.747 785 510.665 785c0.002 0-0.001 0 0 0 31.92 0 60.526-17.782 74.653-46.406l78.132-158.312a23.25 23.25 0 0 1 17.505-12.719l174.709-25.387c31.589-4.59 57.339-26.301 67.203-56.659s1.792-63.059-21.065-85.339l-126.42-123.229a23.25 23.25 0 0 1-6.687-20.578l29.844-174.003c5.396-31.461-7.294-62.661-33.119-81.424-14.591-10.6-31.667-15.987-48.855-15.988zM510.666 725c-4.346 0-15.076-1.263-20.85-12.96l-78.132-158.312a83.234 83.234 0 0 0-62.682-45.542L174.295 482.8c-12.909-1.876-17.426-11.691-18.769-15.824-1.343-4.132-3.458-14.728 5.883-23.833l126.419-123.229a83.234 83.234 0 0 0 23.942-73.688l-29.843-174.001c-2.205-12.856 5.734-20.186 9.249-22.74 3.516-2.555 12.939-7.838 24.485-1.77l156.264 82.152a83.234 83.234 0 0 0 77.479 0l156.263-82.152c11.548-6.071 20.97-0.785 24.485 1.77s11.454 9.884 9.249 22.74l-29.844 174.002a83.235 83.235 0 0 0 23.942 73.687l126.42 123.229c9.341 9.105 7.226 19.7 5.883 23.833s-5.859 13.948-18.769 15.824l-174.708 25.387a83.237 83.237 0 0 0-62.682 45.541L531.514 712.04c-5.773 11.697-16.503 12.96-20.848 12.96z"  horiz-adv-x="1024" />

    
    <glyph glyph-name="lishijishi" unicode="&#58901;" d="M552.9 330.1m-384.3 0a384.3 384.3 0 1 1 768.6 0 384.3 384.3 0 1 1-768.6 0ZM583.3 286.5c-6.8 0-13.6 2.4-19.3 7.4l-90.5 79.9c-6.9 6.1-10.9 15.1-10.9 24.6V510.2c0 17.7 13.5 32 30.2 32s30.2-14.3 30.2-32v-96.9l79.6-70.3c12.8-11.3 14.5-31.5 3.9-45-6-7.5-14.5-11.5-23.2-11.5zM501.9 830.4c-235.6 0-427.3-191.7-427.3-427.3s191.7-427.3 427.3-427.3 427.3 191.7 427.3 427.3S737.5 830.4 501.9 830.4z m0-805.2C293.2 25.2 124 194.4 124 403.1S293.2 781 501.9 781s377.9-169.2 377.9-377.9-169.2-377.9-377.9-377.9z"  horiz-adv-x="1024" />

    
    <glyph glyph-name="tubiao-" unicode="&#58896;" d="M917.8 653c5.4 0 10-4.6 10-10v-520c0-5.4-4.6-10-10-10H104.2c-5.4 0-10 4.6-10 10V643c0 5.4 4.6 10 10 10h813.6m0 30H104.2c-22 0-40-18-40-40v-520c0-22 18-40 40-40h813.6c22 0 40 18 40 40V643c0 22-18 40-40 40zM659 435.5c-4.7 4-11.4 6-19.9 6h-33.7v-52.8H639c8.5 0 15.2 2.1 19.9 6.4 4.7 4.3 7.1 11.1 7.1 20.4 0.1 9.4-2.3 16-7 20zM873.5 628h-725c-16.2 0-29.3-13.1-29.3-29.3v-431.3c0-16.2 13.1-29.3 29.3-29.3h724.9c16.2 0 29.3 13.1 29.3 29.3V598.6c0.1 16.2-13 29.4-29.2 29.4zM414.7 293.4h-35.4l-60.6 179.2h40l38.9-136 39.3 136h38.9l-61.1-179.2z m117.5 0H495V472.6h37.2v-179.2z m155.4 77.5c-10.5-8.8-25.5-13.1-44.9-13.1h-37.3v-64.4h-37.2V472.6H645c17.7 0 31.9-4.6 42.4-13.9s15.8-23.5 15.8-42.9c0.1-21.2-5.2-36.1-15.6-44.9z"  horiz-adv-x="1024" />

    
    <glyph glyph-name="lvsefenkaicankaoxianban-" unicode="&#58900;" d="M663.466667 87.46666700000003L490.666667 170.66666699999996c-4.266667 2.133333-8.533333 2.133333-12.8 0l-168.533334-93.866667c-10.666667-6.4-23.466667 2.133333-21.333333 14.933333l27.733333 189.866667c0 4.266667 0 8.533333-4.266666 12.8l-142.933334 130.133333c-8.533333 8.533333-4.266667 23.466667 6.4 25.6l189.866667 34.133334c4.266667 0 8.533333 4.266667 10.666667 8.533333l81.066666 174.933333c4.266667 10.666667 21.333333 10.666667 25.6 0l91.733334-168.533333c2.133333-4.266667 6.4-6.4 10.666666-8.533333l192-21.333334c12.8-2.133333 17.066667-14.933333 8.533334-23.466666l-134.4-138.666667c-4.266667-4.266667-4.266667-8.533333-4.266667-12.8l38.4-187.733333c2.133333-14.933333-10.666667-23.466667-21.333333-19.2zM288-8.53333299999997c-8.533333 0-14.933333 2.133333-23.466667 6.4-12.8 8.533333-19.2 23.466667-17.066666 38.4l36.266666 253.866666-187.733333 170.666667c-10.666667 10.666667-17.066667 25.6-10.666667 40.533333 4.266667 14.933333 17.066667 25.6 32 27.733334L369.066667 576l104.533333 232.533333c6.4 14.933333 19.2 23.466667 36.266667 23.466667 14.933333 0 29.866667-8.533333 36.266666-21.333333l121.6-226.133334L921.6 554.666667c14.933333-2.133333 27.733333-12.8 34.133333-25.6 4.266667-14.933333 2.133333-29.866667-8.533333-42.666667L768 302.93333299999995l51.2-249.6c2.133333-14.933333-2.133333-29.866667-14.933333-40.533333s-27.733333-10.666667-42.666667-4.266667l-230.4 113.066667-221.866667-125.866667c-6.4-4.266667-12.8-4.266667-21.333333-4.266666zM128 488.533333l185.6-170.666666c10.666667-8.533333 14.933333-23.466667 12.8-36.266667l-34.133333-249.6L512 157.866667c10.666667 6.4 25.6 6.4 38.4 2.133333l228.266667-110.933333-51.2 245.333333c-2.133333 12.8 2.133333 27.733333 10.666666 36.266667l174.933334 181.333333L661.333333 541.866667c-12.8 2.133333-25.6 8.533333-32 21.333333L512 785.066667l-104.533333-228.266667c-6.4-12.8-17.066667-21.333333-29.866667-23.466667L128 488.533333z m652.8-439.466666z"  horiz-adv-x="1024" />

    
    <glyph glyph-name="shoucang8" unicode="&#58983;" d="M510.7 1.4c-37.2 0-74.3 14.4-102.6 43.2l-0.2 0.2-269.6 277.9c-24.9 25.5-44 55.5-56.8 88.9-12.3 32.3-18.2 66.3-17.4 101.1 0.8 34.9 8.2 68.8 22.1 100.6 14.4 33 35.1 62.3 61.5 87 48.6 45.9 112.5 69.3 180 66.1 66.2-3.2 128.6-31.5 175.7-79.9l9-9.2 8.3 9.3c97.9 100.4 254 106.6 355.3 14.1l0.3-0.3c26.4-24.7 47.2-54 61.6-87.1 13.9-31.8 21.3-65.7 22.1-100.7 0.8-34.8-5.1-68.8-17.4-101.1-12.8-33.4-31.9-63.4-56.8-88.9l-272.4-278c-28.3-28.7-65.5-43.2-102.7-43.2zM458 95.5c29.1-29.6 76.4-29.5 105.5 0.1l272.3 277.9c35.7 36.6 54.8 85.5 53.7 137.5-1.2 52.3-22.7 100.7-60.6 136.2-73.1 66.6-186 61.8-257.5-10.9l-30.5-34.2-0.9-0.8c-15.2-14.8-38.7-14.6-53.5 0.5l-0.1 0.1-33 33.8c-34.7 35.6-80.5 56.4-129 58.8-48.4 2.3-94.2-14.4-128.8-47.1l-0.1-0.1c-38-35.5-59.6-83.9-60.8-136.2-1.2-52 17.9-100.9 53.7-137.7L458 95.5zM339.7 608c-64.1-1.4-98.6-29.4-116.3-52.6-10.2-13.5-16-26.8-19.3-37-4.1-10.5-7.4-22.3-9.8-35.7-3.5-19.6 9.5-38.3 29-41.8 2.2-0.4 4.3-0.6 6.4-0.6 17.1 0 32.2 12.2 35.4 29.6 1.5 8.4 3.6 16 6.2 22.7l0.9 2.1c1.1 4 3.9 11.7 10.2 19.1 8.4 9.9 20.7 16.6 36.6 19.8 6.8 1.4 14.2 2.2 22.3 2.4 17.7 0.4 32.1 13.4 34.8 30.3 0.3 2.1 0.5 4.2 0.4 6.4-0.4 19.9-16.9 35.7-36.8 35.3z"  horiz-adv-x="1024" />

    
    <glyph glyph-name="shoucang6" unicode="&#59136;" d="M561.2 37c-77.2 44.7-109 113-120.8 208.4-20 161.6 94.9 308.9 256.5 328.8 75.1 9.3 148.3-28.9 205.9-69M512.4-10.9l-19.2 13.8c-3.7 2.7-92.1 66.4-181.9 155.6-124.5 123.7-187.6 232.4-187.6 323 0 80 23.1 145.1 66.7 188.2 35.6 35.2 83.2 53.4 137.7 52.7 76.6-1 146.6-54.1 183-87.2 33.2 32.9 97.4 83.5 181.9 88.5 52.2 3.1 99.3-13.6 136.1-48.3 46.5-43.8 72-112.7 72-194 0-90.6-63.1-199.2-187.6-323-89.8-89.2-178.1-153-181.9-155.6l-19.2-13.7zM325 656.4c-35.9 0-65.6-11.3-88.3-33.7-30.8-30.4-47.1-79.2-47.1-141.2 0-38.3 16.8-83.7 50.1-135.2 28.1-43.6 67.6-90.8 117.4-140.3 61.9-61.6 124.6-111.6 155.2-135 30.6 23.4 93.3 73.4 155.2 135 49.8 49.6 89.3 96.8 117.4 140.3 33.2 51.5 50.1 96.9 50.1 135.2 0 62.9-18.2 114.7-51.3 145.9-23.5 22.2-52.7 32.4-86.9 30.4-48.2-2.8-88.6-27.2-114-47.1-27.7-21.7-44-42.9-44.1-43.1l-24.3-32.3-26.8 30.3c-0.2 0.2-21.1 23.6-52.4 46.7-27.1 19.9-67.8 43.7-108 44.2-0.7-0.1-1.5-0.1-2.2-0.1z"  horiz-adv-x="1024" />

    
    <glyph glyph-name="gouwu1" unicode="&#59149;" d="M835.4 403.4L428 330.3V611.9h407.4zM882.7 80.1H314.4l-125.9 565H94.2v66h147.2l125.9-565h515.4zM436.5 193.6l-9.2 65.3L788 309.5l27.9 256.6H427.1v66h462.3l-41.3-380.8zM399.6 114.6H462v-93.4h-62.4zM739.7 114.6h62.4v-93.4h-62.4z"  horiz-adv-x="1024" />

    
    <glyph glyph-name="wodehuiyuanqia" unicode="&#58905;" d="M888.832 732.16H135.168C74.752 732.16 25.6 683.008 25.6 622.592v-477.184c0-60.416 49.152-109.568 109.568-109.568h754.176c60.416 0 109.568 49.152 109.568 109.568v302.08c0 14.848-12.288 26.624-27.136 26.624s-26.624-11.776-27.136-26.624v-304.64c0-30.72-25.088-55.296-55.296-55.296H135.168c-30.72 0-55.296 25.088-55.296 55.296V625.664c0 30.72 25.088 55.296 55.296 55.296h753.664c30.72 0 55.296-25.088 55.296-55.296V614.4c0-14.848 12.288-27.136 27.136-27.136s27.136 12.288 27.136 27.136v8.192c0 60.416-49.152 109.568-109.568 109.568zM397.312 519.68h58.88l-92.16-271.36H309.76l-91.648 271.36h60.928l58.368-205.312 59.904 205.312zM544.256 519.68v-271.36H487.424v271.36h56.832zM653.824 346.624v-97.792h-56.832v271.36h123.904c26.112 0 46.592-7.68 61.952-23.04 14.848-15.36 22.528-36.864 22.528-63.488 0-18.944-5.12-36.864-15.872-52.224-15.36-22.528-38.912-33.792-70.656-33.792h-65.024z m0 46.592H706.56c17.92 0 30.72 5.632 36.864 16.384 3.584 6.144 5.12 14.336 5.12 25.6 0 13.312-4.096 23.04-11.776 28.672-7.68 5.632-20.48 8.704-38.4 8.704h-45.056v-79.36z"  horiz-adv-x="1024" />

    
    <glyph glyph-name="wangzhan" unicode="&#58914;" d="M1279.461328-127.99875799999995h-73.995772a7.040297 7.040297 0 1 0 0 14.080594h73.995772a7.040297 7.040297 0 1 0 0-14.080594zM1151.650562-127.99875799999995H167.345221a7.040297 7.040297 0 1 0 0 14.080594h984.305341a7.040297 7.040297 0 1 0 0-14.080594zM135.263372-127.99875799999995H111.45999a7.040297 7.040297 0 1 0 0 14.080594h23.803382a7.040297 7.040297 0 1 0 0-14.080594zM137.455315 366.32846900000004c-0.699186 7.821449-7.606601 13.593772-15.426807 12.894586a14.627028 14.627028 0 0 1-9.558859-5.065686 13.660834 13.660834 0 0 1-3.179248-10.316414 14.60219 14.60219 0 0 1 5.140199-9.557616 13.088321 13.088321 0 0 1 9.003732-3.381678h1.126398c7.818965 0.699186 13.59253 7.605359 12.894585 15.426808z m-8.663452-11.406797a11.529744 11.529744 0 0 0-12.756736 1.398373 10.561067 10.561067 0 0 0-4.0523 7.801578 11.539679 11.539679 0 0 0 2.593075 8.488346 10.578453 10.578453 0 0 0 7.821448 4.053542h1.033256a11.447779 11.447779 0 0 0 11.508632-10.475376 11.532228 11.532228 0 0 0-6.147375-11.266463zM1265.064051 737.166721c-0.968677 10.820623-10.527536 18.809727-21.346917 17.841049a20.221761 20.221761 0 0 1-13.223687-7.008008 18.901627 18.901627 0 0 1-4.401273-14.27433 20.210584 20.210584 0 0 1 7.113569-13.224929 18.108057 18.108057 0 0 1 12.457439-4.679457h1.558577c10.819381 0.964952 18.808485 10.522568 17.842292 21.345675z m-11.986761-15.783232a15.955855 15.955855 0 0 0-17.652282 1.934871 14.6084 14.6084 0 0 0-5.608394 10.794543 15.96579 15.96579 0 0 0 3.587832 11.745834 14.639447 14.639447 0 0 0 10.821865 5.608393h1.430662c8.279708 0.074514 15.221895-6.241759 15.922323-14.494145a15.947161 15.947161 0 0 0-8.502006-15.589496zM235.502849 796.147994a3.055059 3.055059 0 0 0-3.055059 3.055059V818.957862l-13.951437-13.95268a3.132057 3.132057 0 0 0-4.428595 4.427352l13.955164 13.95268h-19.790824a3.06872 3.06872 0 1 0 0 6.138682h19.790824l-13.955164 13.786266a2.915967 2.915967 0 0 0 0 4.427352 2.914725 2.914725 0 0 0 2.215539 1.015869c0.850697 0 1.656687-0.368843 2.213056-1.015869l13.951437-13.818555V853.676251a3.051334 3.051334 0 0 0 4.693118 3.164346 3.04264 3.04264 0 0 0 1.277909-3.164346v-19.757292l14.089287 13.953922a2.918451 2.918451 0 0 0 4.428595 0 2.918451 2.918451 0 0 0 0-4.427353l-13.955164-13.955163h19.756051a3.067478 3.067478 0 1 0 0-6.136198h-19.756051l13.955164-13.956406c0.791086-0.787361 1.097834-1.94108 0.809714-3.021528a3.138266 3.138266 0 0 0-2.213055-2.215539 3.134541 3.134541 0 0 0-3.025254 0.813441L238.418817 818.959104v-19.756051c0.336553-1.71133-1.372293-3.053817-3.051334-3.053817h0.135366zM216.146689-44.44661099999996h-8.443638v8.444879c0 1.404582-1.136333 2.540915-2.540915 2.540915s-2.540915-1.136333-2.540915-2.540915v-8.444879h-8.443637a2.539673 2.539673 0 1 1 0-5.081831h8.443637v-8.443637a2.529738 2.529738 0 0 1 2.528496-2.526013l0.02608 0.109287a2.521045 2.521045 0 0 1 2.527254 2.528496v8.330625h8.443638a2.542157 2.542157 0 0 1 0 5.083073zM1217.115764 12.830782999999997c0-16.738248-11.334767-29.903566-25.352025-29.903566 14.05824 0 25.352025-13.391343 25.352025-29.904808 0 16.740732 11.336009 29.904808 25.348299 29.904808-14.05824-0.001242-25.348299 13.386376-25.348299 29.903566z m0 0M988.198679 766.768507H402.550016C319.268602 766.768507 252.104489 699.604394 252.104489 616.324222v-586.993634c0-81.935201 67.164113-149.094346 150.445527-149.094347h586.992392c81.936443 0 149.095588 67.159146 149.095588 150.443044V616.324222c-0.001242 83.280172-67.160387 150.444285-150.439317 150.444285zM326.618131 29.330588000000034v586.993634c0 83.280172 67.164113 150.444285 150.445527 150.444285h-74.513642C319.268602 766.768507 252.104489 699.604394 252.104489 616.324222v-586.993634c0-81.935201 67.164113-149.094346 150.445527-149.094347h74.513642c-83.281414 0-150.445527 67.159146-150.445527 149.094347zM989.542408-126.80405599999995H402.550016c-86.838198 0-157.485824 70.04034-157.485824 156.134644v586.993634c0 42.158577 16.355744 81.732772 46.054398 111.431426s69.272849 46.054398 111.431426 46.054398h585.648663c42.157335 0 81.73153-16.355744 111.428942-46.054398 29.69617-29.698654 46.050673-69.271607 46.050673-111.431426v-326.867752a7.040297 7.040297 0 1 0-14.080595 0V616.324222c0 79.072635-64.328869 143.403988-143.39902 143.403988H402.550016c-79.073877 0-143.403988-64.330111-143.403988-143.403988v-586.993634c0-78.327499 64.330111-142.054049 143.403988-142.054049h586.992392c78.328741 0 142.055291 64.330111 142.055291 143.402746v51.587036a7.040297 7.040297 0 1 0 14.080595 0v-51.587036c-0.001242-86.836957-70.042824-157.483341-156.135886-157.483341zM1138.636754 186.996487a7.040297 7.040297 0 0 0-7.040297 7.040297v58.989966a7.040297 7.040297 0 1 0 14.080595 0v-58.989966a7.040297 7.040297 0 0 0-7.040298-7.040297zM954.570672 475.928101c10.849186 38.03673 14.968549 111.368089-52.936975 120.842499-54.306784 6.79937-119.467722-28.492775-153.455878-51.631744-10.844219 1.373535-23.068182 2.744586-35.288419 2.744585-88.30115 1.373535-145.286699-28.492775-194.173858-92.34724-17.64483-23.068182-33.91861-62.482173-39.409023-107.247485 24.442958 42.087789 100.516419 119.468964 180.645906 150.711292 0 0-120.842499-86.925131-180.645906-209.138681v-1.372292c-2.744586-5.425835-5.423351-10.850428-8.170421-17.646073-58.361568-145.285457-10.847944-207.76763 33.985672-218.616816 40.716738-10.847944 97.774317 9.476893 143.911922 58.361568 77.381175-17.643589 154.829413 2.745828 183.32343 17.648556 54.312994 29.863826 92.34724 82.804527 100.520145 137.183341H783.468722s-6.795644-47.513624-86.92389-47.513624c-73.327633 0-77.381175 85.551596-77.381175 85.551596h316.387408s5.425835 92.344757-39.407781 153.452153c-25.817735 33.921094-59.737587 63.855707-107.248727 80.129487 14.968549 10.845461 39.412749 27.190028 61.107396 32.613379 40.715496 10.845461 67.906766 4.049816 85.550354-25.817735 23.071907-40.716738-13.593772-134.437513-13.593772-134.437513s21.761709 27.120482 32.612137 66.530747zM627.337804 116.01230699999996c-62.480931-51.634228-114.046855-44.8361-134.437513-14.967307-17.648556 27.19127-20.393142 74.70241 0 141.234399 9.47441-25.817735 24.442958-50.25821 46.137605-71.956582 27.188786-27.122966 57.056338-44.766554 88.299908-54.31051z m-2.749554 264.822726s2.749553 61.107396 69.281543 66.531989c57.056338 5.424593 86.920163-20.393142 96.398298-69.2803l-165.679841 2.748311z m0 0"  horiz-adv-x="1390" />

    
    <glyph glyph-name="wodeVIP" unicode="&#58930;" d="M733.44 43.946667H296.96a128 128 0 0 0-128 128V501.546667a42.666667 42.666667 0 0 0 64 36.48l120.746667-72.746667 128 135.893333a40.96 40.96 0 0 0 30.293333 13.653334 42.666667 42.666667 0 0 0 31.146667-14.08l121.6-134.826667 118.186666 72.106667a42.666667 42.666667 0 0 0 64-36.48v-257.92a42.666667 42.666667 0 0 0-85.333333 0v181.973333l-83.413333-50.986667a42.666667 42.666667 0 0 0-53.973334 7.893334L512 509.013333l-119.466667-128a42.666667 42.666667 0 0 0-53.12-7.253333l-85.333333 51.626667V172.8a42.666667 42.666667 0 0 1 42.666667-42.666667h436.693333a42.666667 42.666667 0 0 0 0-85.333333zM238.350013 624.716497m-30.169889-30.16989a42.666667 42.666667 0 1 1 60.339778 60.339779 42.666667 42.666667 0 1 1-60.339778-60.339779ZM511.913151 703.271006m-30.16989-30.169889a42.666667 42.666667 0 1 1 60.339779 60.339779 42.666667 42.666667 0 1 1-60.339779-60.339779ZM778.747268 624.744078m-30.16989-30.169889a42.666667 42.666667 0 1 1 60.339779 60.339779 42.666667 42.666667 0 1 1-60.339779-60.339779ZM516.053333 165.12a32 32 0 0 0-25.386666 13.226667L418.346667 277.333333A32 32 0 0 0 469.333333 314.88l44.16-61.013333 38.186667 59.52a32 32 0 1 0 53.76-34.56l-64-98.986667a32 32 0 0 0-26.026667-14.72z"  horiz-adv-x="1024" />

    
    <glyph glyph-name="zhibolishi" unicode="&#58935;" d="M512 0a384 384 0 1 0 384 384 384 384 0 0 0-384-384z m0 682.666667a298.666667 298.666667 0 1 1 298.666667-298.666667 298.666667 298.666667 0 0 1-298.666667 298.666667zM495.146667 313.173333a42.666667 42.666667 0 0 0-42.666667 42.666667V576a42.666667 42.666667 0 0 0 85.333333 0v-219.733333a42.666667 42.666667 0 0 0-42.666666-43.093334zM633.813333 313.173333h-138.666666a42.666667 42.666667 0 0 0 0 85.333334h138.666666a42.666667 42.666667 0 1 0 0-85.333334zM495.268418 355.802066m-30.169889-30.16989a42.666667 42.666667 0 1 1 60.339779 60.339779 42.666667 42.666667 0 1 1-60.339779-60.339779Z"  horiz-adv-x="1024" />

    
    <glyph glyph-name="people_fill" unicode="&#59157;" d="M813.728 256c-3.904 1.728-58.56 25.6-129.312 45.792a883.616 883.616 0 0 1-72.608 17.568c36.096 30.592 59.552 75.68 59.552 126.656v123.104A167.168 167.168 0 0 1 504.192 736c-92.16 0-167.2-74.72-167.2-166.88v-123.104c0-52.352 24.768-98.624 62.72-129.248-25.472-5.408-50.112-11.904-72.8-18.688a1098.656 1098.656 0 0 1-115.648-41.664C182.016 244.67200000000003 160 211.808 160 180v-131.68l1.696-4.992c9.504-27.936 35.136-46.688 63.808-46.688h572.992a65.536 65.536 0 0 1 64.96 56.96l0.544 126.4c0 31.584-21.952 64.384-50.272 76"  horiz-adv-x="1024" />

    
    <glyph glyph-name="lianjie1" unicode="&#58947;" d="M140.052281 171.61209499999995m104.305321 104.305321l344.756982 344.756982q104.305321 104.305321 208.610643 0l0 0q104.305321-104.305321 0-208.610642l-344.756983-344.756983q-104.305321-104.305321-208.610642 0l0 0q-104.305321 104.305321 0 208.610643ZM574.92 223.51999999999998c-0.34-0.35-147.59-147.59-152.83-152.82a166 166 0 0 0-112.33-48.39c-1.88-0.06-3.76-0.1-5.62-0.1a168.32 168.32 0 0 0-122.72 283.4c1.27 1.36 154.46 154.33 155.77 155.64l-19.55 19.55c-0.92-0.93-153.63-153.65-154.53-154.59a195.1 195.1 0 0 1-54.73-142.07c3.46-106 90.47-189.6 195.76-189.6 2.16 0 4.34 0 6.51 0.11a193.62 193.62 0 0 1 131.05 56.44l152.82 152.82zM326.86 470.54m-13.83 0a13.83 13.83 0 1 1 27.66 0 13.83 13.83 0 1 1-27.66 0ZM584.24 213.15999999999997m-13.83 0a13.83 13.83 0 1 1 27.66 0 13.83 13.83 0 1 1-27.66 0ZM416.41 540.45l152.83 152.82a166 166 0 0 0 112.33 48.39c1.88 0.06 3.76 0.09 5.62 0.09 91.29 0 165.13-71.52 168.1-162.83a167.24 167.24 0 0 0-45.38-120.57C808.64 457 655.45 304 654.14 302.72l19.55-19.55c0.92 0.92 153.63 153.64 154.53 154.58A195.13 195.13 0 0 1 883 579.8199999999999c-3.47 106-90.47 189.6-195.76 189.6-2.16 0-4.34 0-6.51-0.11a193.6 193.6 0 0 1-131-56.44L396.8 560zM664.46 293.42999999999995m-13.83 0a13.83 13.83 0 1 1 27.66 0 13.83 13.83 0 1 1-27.66 0ZM407.09 550.8m-13.83 0a13.83 13.83 0 1 1 27.66 0 13.83 13.83 0 1 1-27.66 0ZM322.653355 228.54207099999996m9.779287 9.779287l306.891414 306.891414q9.779287 9.779287 19.558574 0l0.007071-0.007071q9.779287-9.779287 0-19.558574l-306.891414-306.891414q-9.779287-9.779287-19.558574 0l-0.007071 0.007071q-9.779287 9.779287 0 19.558574Z"  horiz-adv-x="1024" />

    
    <glyph glyph-name="PlayFilled" unicode="&#58986;" d="M512 844.8C258.048 844.8 51.2 637.952 51.2 384s206.848-460.8 460.8-460.8 460.8 206.848 460.8 460.8S765.952 844.8 512 844.8z m143.36-492.544c-4.096-5.12-8.192-10.24-13.312-13.312L445.44 207.87199999999996c-9.216-6.144-18.432-8.192-28.672-8.192-16.384 0-32.768 8.192-43.008 22.528-4.096 5.12-6.144 11.264-7.168 18.432-9.216 45.056-13.312 92.16-13.312 140.288 0 49.152 5.12 98.304 14.336 146.432 3.072 13.312 10.24 24.576 21.504 32.768s24.576 10.24 37.888 8.192c7.168-1.024 13.312-4.096 19.456-8.192l196.608-136.192c23.552-16.384 28.672-49.152 12.288-71.68z"  horiz-adv-x="1024" />

    
    <glyph glyph-name="shoucang4" unicode="&#58889;" d="M887.7 515.8L693 564.6c-3.6 0.9-6.7 3.2-8.7 6.3l-106.5 170c-4.6 7.3-10.8 13.5-18.1 18.1-26.8 16.8-62.2 8.7-79-18.1L374 570.8c-2-3.1-5.1-5.4-8.7-6.3l-194.7-48.8c-8.4-2.1-16.2-6.1-22.9-11.7-24.3-20.3-27.5-56.5-7.2-80.8l33.6-40.2 42.6-3.8c201.6-18 379.4-143.6 464-327.9l18.9-41.1 21-8.4c8-3.2 16.7-4.6 25.4-4 31.6 2.2 55.4 29.5 53.3 61.1l-13.8 200.2c-0.3 3.7 0.9 7.3 3.3 10.2l128.8 153.9c5.6 6.6 9.5 14.5 11.7 22.9 7.7 30.9-10.9 62-41.6 69.7zM337.6 1.9l186.2 75c1.7 0.7 3.5 1 5.4 1 1.8 0 3.6-0.3 5.4-1l107.5-43.3c-76.5 166.7-238 286.2-428.9 303.2l56.4-67.4c2.4-2.8 3.6-6.5 3.3-10.2L259 59.1c-0.6-8.6 0.8-17.3 4-25.4 9-22.3 30.5-35.9 53.2-35.9 7.2 0 14.4 1.3 21.4 4.1z"  horiz-adv-x="1024" />

    
    <glyph glyph-name="shangpingoumai" unicode="&#58931;" d="M567.168305 213.170871m-341.170871 0a341.170871 341.170871 0 1 1 682.341742 0 341.170871 341.170871 0 1 1-682.341742 0ZM952.204002 728.095193m-97.477392 0a97.477392 97.477392 0 1 1 194.954784 0 97.477392 97.477392 0 1 1-194.954784 0ZM189.930799 292.858639a11.94098 11.94098 0 0 0-11.940981 9.991432l-52.394098 270.499762a12.428367 12.428367 0 0 0 11.940981 14.621609h454.975725a12.428367 12.428367 0 0 0 9.504046-4.630176 11.94098 11.94098 0 0 0 2.436935-9.991433l-55.562113-269.768681a12.184674 12.184674 0 0 0-11.940981-9.747739H189.930799zM536.219233 306.018087zM152.402003 563.602094L199.922231 317.227987h327.03665l50.688243 246.374107zM619.318709 195.137554H209.182584a12.184674 12.184674 0 0 0-11.940981 9.747739L105.369161 670.827225 11.303478 676.675869A12.672061 12.672061 0 0 0 0.093578 690.81009 12.184674 12.184674 0 0 0 13.253026 701.045217l103.082342-7.554498a12.672061 12.672061 0 0 0 11.2099-9.991433L219.41771 219.506901h399.900999a12.184674 12.184674 0 0 0 0-24.369347zM249.392008 62.811994A53.125178 53.125178 0 1 0 302.76088 116.180866a53.368872 53.368872 0 0 0-53.368872-53.368872z m0 81.881009A28.755831 28.755831 0 1 1 278.391532 116.180866a28.755831 28.755831 0 0 1-28.999524 28.512137zM587.15117 62.811994A53.125178 53.125178 0 1 0 640.276348 116.180866a53.125178 53.125178 0 0 0-53.125178-53.368872z m0 81.881009A28.755831 28.755831 0 1 1 615.907 116.180866a28.755831 28.755831 0 0 1-28.75583 28.512137zM308.609523 354.756782a11.94098 11.94098 0 0 0-9.504046 19.495479l114.779629 146.216087a12.184674 12.184674 0 1 0 19.251785-14.865302l-115.023322-146.216087a11.697287 11.697287 0 0 0-9.504046-4.630177zM260.114521 440.0495a12.184674 12.184674 0 0 0-7.310805 2.680629 12.184674 12.184674 0 0 0-2.193241 17.058543l48.738696 61.898144a11.94098 11.94098 0 0 0 17.058543 2.193241 12.184674 12.184674 0 0 0 1.949548-17.058543l-48.738696-62.141838a12.915754 12.915754 0 0 0-9.504045-4.630176zM423.389152 354.756782a12.672061 12.672061 0 0 0-7.554498 2.436935 12.184674 12.184674 0 0 0-1.949548 17.058544l48.738696 62.141837a12.184674 12.184674 0 0 0 17.058544 1.949548 12.184674 12.184674 0 0 0 2.193241-17.058544l-48.738696-61.898143a12.184674 12.184674 0 0 0-9.747739-4.630177zM766.753264 582.610186a12.184674 12.184674 0 0 0-9.504046 4.873869 12.184674 12.184674 0 0 0-2.193241 10.722513l47.520229 170.585436a12.184674 12.184674 0 0 0 11.697287 9.016659h157.182294a12.184674 12.184674 0 0 0 11.94098-9.260353l41.915279-170.585435a13.159448 13.159448 0 0 0-2.193242-10.47882 12.428367 12.428367 0 0 0-9.504045-4.630176l-246.617801-2.436935zM823.777538 754.657782l-40.940504-147.434555 216.399809 1.949548-36.066635 146.216087zM856.432465 754.901475a11.94098 11.94098 0 0 0-12.184674 11.453594c0 9.016659-4.386483 88.704426 24.369348 117.947644A36.066635 36.066635 0 0 0 893.717567 896a37.041409 37.041409 0 0 0 27.049976-11.94098c28.268444-29.243218 26.562589-107.956211 26.318896-116.972871a12.672061 12.672061 0 0 0-12.672061-11.697287 12.184674 12.184674 0 0 0-11.697287 12.672061c0 29.486911-3.655402 82.612089-19.495478 99.183246a12.915754 12.915754 0 0 1-9.504046 4.386483c-1.462161 0-5.117563 0-8.529272-4.142789-15.596383-16.327463-18.520704-69.696335-16.571156-99.670633a12.428367 12.428367 0 0 0-11.453594-12.915755z"  horiz-adv-x="1049" />

    
    <glyph glyph-name="PlayFilled-copy" unicode="&#59598;" d="M512 844.8C258.048 844.8 51.2 637.952 51.2 384s206.848-460.8 460.8-460.8 460.8 206.848 460.8 460.8S765.952 844.8 512 844.8z m143.36-492.544c-4.096-5.12-8.192-10.24-13.312-13.312L445.44 207.87199999999996c-9.216-6.144-18.432-8.192-28.672-8.192-16.384 0-32.768 8.192-43.008 22.528-4.096 5.12-6.144 11.264-7.168 18.432-9.216 45.056-13.312 92.16-13.312 140.288 0 49.152 5.12 98.304 14.336 146.432 3.072 13.312 10.24 24.576 21.504 32.768s24.576 10.24 37.888 8.192c7.168-1.024 13.312-4.096 19.456-8.192l196.608-136.192c23.552-16.384 28.672-49.152 12.288-71.68z"  horiz-adv-x="1024" />

    
    <glyph glyph-name="category_fill-copy" unicode="&#59599;" d="M291 798.3c-51.6 0-100.3-20.2-137-57-36.7-36.7-57-85.4-57-137s20.2-100.3 57-137c36.7-36.7 85.4-57 137-57s100.3 20.2 137 57c36.7 36.7 57 85.4 57 137s-20.2 100.3-57 137c-36.7 36.7-85.3 57-137 57zM291 356.29999999999995c-51.6 0-100.3-20.2-137-57s-57-85.4-57-137 20.2-100.3 57-137c36.7-36.7 85.4-57 137-57s100.3 20.2 137 57c36.7 36.7 57 85.4 57 137 0 51.6-20.2 100.3-57 137s-85.3 57-137 57zM803 356.29999999999995H663c-68.4 0-124-55.6-124-124v-140c0-68.4 55.6-124 124-124h140c68.4 0 124 55.6 124 124v140c0 68.4-55.6 124-124 124zM733 410.3c51.6 0 100.3 20.2 137 57s57 85.4 57 137-20.2 100.3-57 137-85.4 57-137 57-100.3-20.2-137-57c-36.7-36.7-57-85.4-57-137s20.2-100.3 57-137c36.7-36.8 85.4-57 137-57z"  horiz-adv-x="1024" />

    
    <glyph glyph-name="fuli-copy" unicode="&#59600;" d="M431.841867 598.229153L57.763077 598.229153c-29.511127 0-53.44012-23.927969-53.44012-53.439096l0-133.599787c0-29.512151 23.927969-53.439096 53.44012-53.439096l374.079814 0c29.510104 0 53.441143 23.926946 53.441143 53.439096L485.284033 544.79108C485.281987 574.302207 461.351971 598.229153 431.841867 598.229153zM431.841867 304.311053L111.202173 304.311053c-29.511127 0-53.44012-23.926946-53.44012-53.43705l0-320.638671c0-29.514197 25.859971-53.442166 55.371098-53.442166l317.740668 0c29.512151 0 53.441143 23.927969 53.441143 53.442166l0.966001 320.638671C485.281987 280.38410799999997 461.351971 304.311053 431.841867 304.311053zM271.027252 891.182274c-30.5549 0.964978-88.405469-27.528983-106.383936-52.474119-64.895009-90.101087-16.726963-213.759455 187.038884-213.759455 87.361697 0 160.318312 76.088956 160.318312 106.879216C512.000512 762.645806 412.8974 886.747265 271.027252 891.182274zM436.044586 732.403015c-3.236718-19.649526-40.159652-45.716204-109.621677-45.716204-78.986959 0-139.599432 37.703717-135.059022 98.581226 2.687202 35.983539 51.977815 50.152237 79.664388 50.152237C401.598053 835.421296 437.191712 739.344101 436.044586 732.403015zM966.237947 598.229153L592.162226 598.229153c-29.512151 0-53.442166-23.927969-53.442166-53.439096l0-133.599787c0-29.512151 23.930015-53.439096 53.442166-53.439096l374.076744 0c29.512151 0 53.44012 23.926946 53.44012 53.439096L1019.67909 544.79108C1019.67602 574.302207 995.750097 598.229153 966.237947 598.229153zM667.856186 624.9497240000001c198.103894 0 244.939595 123.657344 181.844581 213.759455C832.24521 863.654314 775.988951 892.148275 746.26907 891.182274c-137.904837-4.436032-234.268558-128.537492-234.268558-159.353334C512.000512 701.03868 582.923818 624.9497240000001 667.856186 624.9497240000001zM746.26907 835.421296c26.929326 0 74.835406-14.168698 77.471442-50.152237 4.411473-60.877509-54.537104-98.581226-131.303488-98.581226-67.556629 0-103.435791 26.066679-106.593713 45.716204C584.748373 739.344101 619.349425 835.421296 746.26907 835.421296zM912.796804 304.311053L592.162226 304.311053c-29.512151 0-53.442166-23.926946-53.442166-53.43705l0-320.638671c0-29.514197 24.894993-53.442166 54.405097-53.442166L910.865825-123.20683399999996c29.514197 0 53.442166 23.927969 53.442166 53.442166l1.930979 320.638671C966.237947 280.38410799999997 942.309978 304.311053 912.796804 304.311053z"  horiz-adv-x="1024" />

    
    <glyph glyph-name="people_fill-copy" unicode="&#59601;" d="M813.728 256c-3.904 1.728-58.56 25.6-129.312 45.792a883.616 883.616 0 0 1-72.608 17.568c36.096 30.592 59.552 75.68 59.552 126.656v123.104A167.168 167.168 0 0 1 504.192 736c-92.16 0-167.2-74.72-167.2-166.88v-123.104c0-52.352 24.768-98.624 62.72-129.248-25.472-5.408-50.112-11.904-72.8-18.688a1098.656 1098.656 0 0 1-115.648-41.664C182.016 244.67200000000003 160 211.808 160 180v-131.68l1.696-4.992c9.504-27.936 35.136-46.688 63.808-46.688h572.992a65.536 65.536 0 0 1 64.96 56.96l0.544 126.4c0 31.584-21.952 64.384-50.272 76"  horiz-adv-x="1024" />

    
    <glyph glyph-name="PlayFilled-copy-copy" unicode="&#59602;" d="M512 844.8C258.048 844.8 51.2 637.952 51.2 384s206.848-460.8 460.8-460.8 460.8 206.848 460.8 460.8S765.952 844.8 512 844.8z m143.36-492.544c-4.096-5.12-8.192-10.24-13.312-13.312L445.44 207.87199999999996c-9.216-6.144-18.432-8.192-28.672-8.192-16.384 0-32.768 8.192-43.008 22.528-4.096 5.12-6.144 11.264-7.168 18.432-9.216 45.056-13.312 92.16-13.312 140.288 0 49.152 5.12 98.304 14.336 146.432 3.072 13.312 10.24 24.576 21.504 32.768s24.576 10.24 37.888 8.192c7.168-1.024 13.312-4.096 19.456-8.192l196.608-136.192c23.552-16.384 28.672-49.152 12.288-71.68z"  horiz-adv-x="1024" />

    
    <glyph glyph-name="people_fill-copy-copy" unicode="&#59603;" d="M813.728 256c-3.904 1.728-58.56 25.6-129.312 45.792a883.616 883.616 0 0 1-72.608 17.568c36.096 30.592 59.552 75.68 59.552 126.656v123.104A167.168 167.168 0 0 1 504.192 736c-92.16 0-167.2-74.72-167.2-166.88v-123.104c0-52.352 24.768-98.624 62.72-129.248-25.472-5.408-50.112-11.904-72.8-18.688a1098.656 1098.656 0 0 1-115.648-41.664C182.016 244.67200000000003 160 211.808 160 180v-131.68l1.696-4.992c9.504-27.936 35.136-46.688 63.808-46.688h572.992a65.536 65.536 0 0 1 64.96 56.96l0.544 126.4c0 31.584-21.952 64.384-50.272 76"  horiz-adv-x="1024" />

    
    <glyph glyph-name="fuli-copy-copy" unicode="&#59604;" d="M431.841867 598.229153L57.763077 598.229153c-29.511127 0-53.44012-23.927969-53.44012-53.439096l0-133.599787c0-29.512151 23.927969-53.439096 53.44012-53.439096l374.079814 0c29.510104 0 53.441143 23.926946 53.441143 53.439096L485.284033 544.79108C485.281987 574.302207 461.351971 598.229153 431.841867 598.229153zM431.841867 304.311053L111.202173 304.311053c-29.511127 0-53.44012-23.926946-53.44012-53.43705l0-320.638671c0-29.514197 25.859971-53.442166 55.371098-53.442166l317.740668 0c29.512151 0 53.441143 23.927969 53.441143 53.442166l0.966001 320.638671C485.281987 280.38410799999997 461.351971 304.311053 431.841867 304.311053zM271.027252 891.182274c-30.5549 0.964978-88.405469-27.528983-106.383936-52.474119-64.895009-90.101087-16.726963-213.759455 187.038884-213.759455 87.361697 0 160.318312 76.088956 160.318312 106.879216C512.000512 762.645806 412.8974 886.747265 271.027252 891.182274zM436.044586 732.403015c-3.236718-19.649526-40.159652-45.716204-109.621677-45.716204-78.986959 0-139.599432 37.703717-135.059022 98.581226 2.687202 35.983539 51.977815 50.152237 79.664388 50.152237C401.598053 835.421296 437.191712 739.344101 436.044586 732.403015zM966.237947 598.229153L592.162226 598.229153c-29.512151 0-53.442166-23.927969-53.442166-53.439096l0-133.599787c0-29.512151 23.930015-53.439096 53.442166-53.439096l374.076744 0c29.512151 0 53.44012 23.926946 53.44012 53.439096L1019.67909 544.79108C1019.67602 574.302207 995.750097 598.229153 966.237947 598.229153zM667.856186 624.9497240000001c198.103894 0 244.939595 123.657344 181.844581 213.759455C832.24521 863.654314 775.988951 892.148275 746.26907 891.182274c-137.904837-4.436032-234.268558-128.537492-234.268558-159.353334C512.000512 701.03868 582.923818 624.9497240000001 667.856186 624.9497240000001zM746.26907 835.421296c26.929326 0 74.835406-14.168698 77.471442-50.152237 4.411473-60.877509-54.537104-98.581226-131.303488-98.581226-67.556629 0-103.435791 26.066679-106.593713 45.716204C584.748373 739.344101 619.349425 835.421296 746.26907 835.421296zM912.796804 304.311053L592.162226 304.311053c-29.512151 0-53.442166-23.926946-53.442166-53.43705l0-320.638671c0-29.514197 24.894993-53.442166 54.405097-53.442166L910.865825-123.20683399999996c29.514197 0 53.442166 23.927969 53.442166 53.442166l1.930979 320.638671C966.237947 280.38410799999997 942.309978 304.311053 912.796804 304.311053z"  horiz-adv-x="1024" />

    
    <glyph glyph-name="category_fill-copy-copy" unicode="&#59605;" d="M291 798.3c-51.6 0-100.3-20.2-137-57-36.7-36.7-57-85.4-57-137s20.2-100.3 57-137c36.7-36.7 85.4-57 137-57s100.3 20.2 137 57c36.7 36.7 57 85.4 57 137s-20.2 100.3-57 137c-36.7 36.7-85.3 57-137 57zM291 356.29999999999995c-51.6 0-100.3-20.2-137-57s-57-85.4-57-137 20.2-100.3 57-137c36.7-36.7 85.4-57 137-57s100.3 20.2 137 57c36.7 36.7 57 85.4 57 137 0 51.6-20.2 100.3-57 137s-85.3 57-137 57zM803 356.29999999999995H663c-68.4 0-124-55.6-124-124v-140c0-68.4 55.6-124 124-124h140c68.4 0 124 55.6 124 124v140c0 68.4-55.6 124-124 124zM733 410.3c51.6 0 100.3 20.2 137 57s57 85.4 57 137-20.2 100.3-57 137-85.4 57-137 57-100.3-20.2-137-57c-36.7-36.7-57-85.4-57-137s20.2-100.3 57-137c36.7-36.8 85.4-57 137-57z"  horiz-adv-x="1024" />

    
    <glyph glyph-name="lishijishi-copy" unicode="&#59606;" d="M552.9 330.1m-384.3 0a384.3 384.3 0 1 1 768.6 0 384.3 384.3 0 1 1-768.6 0ZM583.3 286.5c-6.8 0-13.6 2.4-19.3 7.4l-90.5 79.9c-6.9 6.1-10.9 15.1-10.9 24.6V510.2c0 17.7 13.5 32 30.2 32s30.2-14.3 30.2-32v-96.9l79.6-70.3c12.8-11.3 14.5-31.5 3.9-45-6-7.5-14.5-11.5-23.2-11.5zM501.9 830.4c-235.6 0-427.3-191.7-427.3-427.3s191.7-427.3 427.3-427.3 427.3 191.7 427.3 427.3S737.5 830.4 501.9 830.4z m0-805.2C293.2 25.200000000000045 124 194.39999999999998 124 403.1S293.2 781 501.9 781s377.9-169.2 377.9-377.9-169.2-377.9-377.9-377.9z"  horiz-adv-x="1024" />

    
    <glyph glyph-name="shoucang6-copy" unicode="&#59607;" d="M561.2 37c-77.2 44.7-109 113-120.8 208.4-20 161.6 94.9 308.9 256.5 328.8 75.1 9.3 148.3-28.9 205.9-69M512.4-10.899999999999977l-19.2 13.8c-3.7 2.7-92.1 66.4-181.9 155.6-124.5 123.7-187.6 232.4-187.6 323 0 80 23.1 145.1 66.7 188.2 35.6 35.2 83.2 53.4 137.7 52.7 76.6-1 146.6-54.1 183-87.2 33.2 32.9 97.4 83.5 181.9 88.5 52.2 3.1 99.3-13.6 136.1-48.3 46.5-43.8 72-112.7 72-194 0-90.6-63.1-199.2-187.6-323-89.8-89.2-178.1-153-181.9-155.6l-19.2-13.7zM325 656.4c-35.9 0-65.6-11.3-88.3-33.7-30.8-30.4-47.1-79.2-47.1-141.2 0-38.3 16.8-83.7 50.1-135.2 28.1-43.6 67.6-90.8 117.4-140.3 61.9-61.6 124.6-111.6 155.2-135 30.6 23.4 93.3 73.4 155.2 135 49.8 49.6 89.3 96.8 117.4 140.3 33.2 51.5 50.1 96.9 50.1 135.2 0 62.9-18.2 114.7-51.3 145.9-23.5 22.2-52.7 32.4-86.9 30.4-48.2-2.8-88.6-27.2-114-47.1-27.7-21.7-44-42.9-44.1-43.1l-24.3-32.3-26.8 30.3c-0.2 0.2-21.1 23.6-52.4 46.7-27.1 19.9-67.8 43.7-108 44.2-0.7-0.1-1.5-0.1-2.2-0.1z"  horiz-adv-x="1024" />

    
    <glyph glyph-name="shangpingoumai-copy" unicode="&#59608;" d="M567.168305 213.17087100000003m-341.170871 0a341.170871 341.170871 0 1 1 682.341742 0 341.170871 341.170871 0 1 1-682.341742 0ZM952.204002 728.095193m-97.477392 0a97.477392 97.477392 0 1 1 194.954784 0 97.477392 97.477392 0 1 1-194.954784 0ZM189.930799 292.85863900000004a11.94098 11.94098 0 0 0-11.940981 9.991432l-52.394098 270.499762a12.428367 12.428367 0 0 0 11.940981 14.621609h454.975725a12.428367 12.428367 0 0 0 9.504046-4.630176 11.94098 11.94098 0 0 0 2.436935-9.991433l-55.562113-269.768681a12.184674 12.184674 0 0 0-11.940981-9.747739H189.930799zM536.219233 306.01808700000004zM152.402003 563.6020940000001L199.922231 317.227987h327.03665l50.688243 246.374107zM619.318709 195.13755400000002H209.182584a12.184674 12.184674 0 0 0-11.940981 9.747739L105.369161 670.827225 11.303478 676.675869A12.672061 12.672061 0 0 0 0.093578 690.81009 12.184674 12.184674 0 0 0 13.253026 701.045217l103.082342-7.554498a12.672061 12.672061 0 0 0 11.2099-9.991433L219.41771 219.50690099999997h399.900999a12.184674 12.184674 0 0 0 0-24.369347zM249.392008 62.81199400000003A53.125178 53.125178 0 1 0 302.76088 116.18086600000004a53.368872 53.368872 0 0 0-53.368872-53.368872z m0 81.881009A28.755831 28.755831 0 1 1 278.391532 116.18086600000004a28.755831 28.755831 0 0 1-28.999524 28.512137zM587.15117 62.81199400000003A53.125178 53.125178 0 1 0 640.276348 116.18086600000004a53.125178 53.125178 0 0 0-53.125178-53.368872z m0 81.881009A28.755831 28.755831 0 1 1 615.907 116.18086600000004a28.755831 28.755831 0 0 1-28.75583 28.512137zM308.609523 354.75678200000004a11.94098 11.94098 0 0 0-9.504046 19.495479l114.779629 146.216087a12.184674 12.184674 0 1 0 19.251785-14.865302l-115.023322-146.216087a11.697287 11.697287 0 0 0-9.504046-4.630177zM260.114521 440.0495a12.184674 12.184674 0 0 0-7.310805 2.680629 12.184674 12.184674 0 0 0-2.193241 17.058543l48.738696 61.898144a11.94098 11.94098 0 0 0 17.058543 2.193241 12.184674 12.184674 0 0 0 1.949548-17.058543l-48.738696-62.141838a12.915754 12.915754 0 0 0-9.504045-4.630176zM423.389152 354.75678200000004a12.672061 12.672061 0 0 0-7.554498 2.436935 12.184674 12.184674 0 0 0-1.949548 17.058544l48.738696 62.141837a12.184674 12.184674 0 0 0 17.058544 1.949548 12.184674 12.184674 0 0 0 2.193241-17.058544l-48.738696-61.898143a12.184674 12.184674 0 0 0-9.747739-4.630177zM766.753264 582.610186a12.184674 12.184674 0 0 0-9.504046 4.873869 12.184674 12.184674 0 0 0-2.193241 10.722513l47.520229 170.585436a12.184674 12.184674 0 0 0 11.697287 9.016659h157.182294a12.184674 12.184674 0 0 0 11.94098-9.260353l41.915279-170.585435a13.159448 13.159448 0 0 0-2.193242-10.47882 12.428367 12.428367 0 0 0-9.504045-4.630176l-246.617801-2.436935zM823.777538 754.657782l-40.940504-147.434555 216.399809 1.949548-36.066635 146.216087zM856.432465 754.901475a11.94098 11.94098 0 0 0-12.184674 11.453594c0 9.016659-4.386483 88.704426 24.369348 117.947644A36.066635 36.066635 0 0 0 893.717567 896a37.041409 37.041409 0 0 0 27.049976-11.94098c28.268444-29.243218 26.562589-107.956211 26.318896-116.972871a12.672061 12.672061 0 0 0-12.672061-11.697287 12.184674 12.184674 0 0 0-11.697287 12.672061c0 29.486911-3.655402 82.612089-19.495478 99.183246a12.915754 12.915754 0 0 1-9.504046 4.386483c-1.462161 0-5.117563 0-8.529272-4.142789-15.596383-16.327463-18.520704-69.696335-16.571156-99.670633a12.428367 12.428367 0 0 0-11.453594-12.915755z"  horiz-adv-x="1049" />

    


  </font>
</defs>
</svg>
